<svg xmlns="http://www.w3.org/2000/svg" viewBox="0 0 16 16"><path d="M8 16c-.5 0-1.1-.1-1.6-.2s-1-.3-1.5-.5-.9-.4-1.4-.7c-.4-.3-.8-.6-1.2-1-.4-.4-.7-.8-1-1.2C1 12 .8 11.5.6 11c-.2-.5-.4-1-.5-1.5 0-.4-.1-1-.1-1.5s.1-1.1.2-1.6.3-1 .5-1.5c.1-.5.4-.9.7-1.4.3-.4.6-.8 1-1.2.4-.4.8-.7 1.2-1 .4-.2.8-.5 1.3-.7.5-.2 1-.4 1.5-.5C6.9.1 7.5 0 8 0s1.1.1 1.6.2 1 .3 1.5.5.9.4 1.4.7c.4.3.8.6 1.2 1 .4.4.7.8 1 1.2.3.4.5.9.7 1.4.2.5.4 1 .5 1.5 0 .4.1 1 .1 1.5s-.1 1.1-.2 1.6-.3 1-.5 1.5-.4.9-.7 1.4c-.3.4-.6.8-1 1.2-.4.4-.8.7-1.2 1-.4.3-.9.5-1.4.7-.5.2-1 .4-1.5.5-.4 0-1 .1-1.5.1zM8 1.3a6.7 6.7 0 100 13.4A6.7 6.7 0 008 1.3zm3.5 9.3L8.9 8l2.6-2.6c.1-.1.1-.2 0-.2l-.7-.7c-.1-.1-.2-.1-.2 0L8 7.1 5.4 4.5c-.1-.1-.2-.1-.2 0l-.7.7c-.1.1-.1.2 0 .2L7.1 8l-2.6 2.6c-.1.1-.1.2 0 .2l.7.7c.1.1.2.1.2 0L8 8.9l2.6 2.6c.1.1.2.1.2 0l.7-.7c.1 0 .1-.1 0-.2z"/></svg>
