<?xml version="1.0" encoding="utf-8"?>
<!-- Generator: Adobe Illustrator 22.0.1, SVG Export Plug-In . SVG Version: 6.00 Build 0)  -->
<svg version="1.1" xmlns="http://www.w3.org/2000/svg" xmlns:xlink="http://www.w3.org/1999/xlink" x="0px" y="0px"
	 viewBox="0 0 16 16" style="enable-background:new 0 0 16 16;" xml:space="preserve">
<path d="M8,16c-0.5,0-1.1-0.1-1.6-0.2c-0.5-0.1-1-0.3-1.5-0.5c-0.5-0.2-0.9-0.4-1.4-0.7c-0.4-0.3-0.8-0.6-1.2-1
	c-0.4-0.4-0.7-0.8-1-1.2c-0.3-0.4-0.5-0.9-0.7-1.4c-0.2-0.5-0.4-1-0.5-1.5C0.1,9.1,0,8.5,0,8s0.1-1.1,0.2-1.6c0.1-0.5,0.3-1,0.5-1.5
	C0.8,4.4,1.1,4,1.4,3.5c0.3-0.4,0.6-0.8,1-1.2c0.4-0.4,0.8-0.7,1.2-1C4,1.1,4.4,0.8,4.9,0.6c0.5-0.2,1-0.4,1.5-0.5
	C6.9,0.1,7.5,0,8,0c0.5,0,1.1,0.1,1.6,0.2c0.5,0.1,1,0.3,1.5,0.5c0.5,0.2,0.9,0.4,1.4,0.7c0.4,0.3,0.8,0.6,1.2,1
	c0.4,0.4,0.7,0.8,1,1.2c0.3,0.4,0.5,0.9,0.7,1.4c0.2,0.5,0.4,1,0.5,1.5C15.9,6.9,16,7.5,16,8s-0.1,1.1-0.2,1.6
	c-0.1,0.5-0.3,1-0.5,1.5c-0.2,0.5-0.4,0.9-0.7,1.4c-0.3,0.4-0.6,0.8-1,1.2c-0.4,0.4-0.8,0.7-1.2,1c-0.4,0.3-0.9,0.5-1.4,0.7
	c-0.5,0.2-1,0.4-1.5,0.5C9.1,15.9,8.5,16,8,16z M8,1.3c-3.7,0-6.7,3-6.7,6.7s3,6.7,6.7,6.7c3.7,0,6.7-3,6.7-6.7S11.7,1.3,8,1.3z
	 M12.7,5.2L12,4.5c-0.1-0.1-0.2-0.1-0.2,0L6.4,9.8L4.3,7.7C4.2,7.6,4.1,7.6,4,7.7L3.3,8.3c-0.1,0.1-0.1,0.2,0,0.2l2.3,2.3
	c0,0,0,0,0,0l0.7,0.7c0.1,0.1,0.2,0.1,0.2,0l6.1-6.1C12.7,5.3,12.7,5.2,12.7,5.2z"/>
</svg>
