<?xml version="1.0" encoding="utf-8"?>
<!-- Generator: Adobe Illustrator 22.0.1, SVG Export Plug-In . SVG Version: 6.00 Build 0)  -->
<svg version="1.1" xmlns="http://www.w3.org/2000/svg" xmlns:xlink="http://www.w3.org/1999/xlink" x="0px" y="0px"
	 viewBox="0 0 16 16" style="enable-background:new 0 0 16 16;" xml:space="preserve">
<path d="M15.6,13.4L10.2,8l5.4-5.4c0.6-0.6,0.6-1.6,0-2.2l0,0c-0.6-0.6-1.6-0.6-2.2,0L8,5.8L2.6,0.4C2-0.1,1-0.1,0.5,0.4l0,0
	C-0.1,1-0.1,2,0.5,2.6L5.8,8l-5.4,5.4c-0.6,0.6-0.6,1.6,0,2.2l0,0c0.6,0.6,1.6,0.6,2.2,0L8,10.2l5.4,5.4c0.6,0.6,1.6,0.6,2.2,0l0,0
	C16.1,15,16.1,14,15.6,13.4z"/>
</svg>
